<svg width="1024" height="1314" viewBox="0 0 1024 1314" fill="none" xmlns="http://www.w3.org/2000/svg" role="img" aria-label="Profile dashboard">
<defs>
<linearGradient id="bg" x1="0" y1="0" x2="1" y2="1"><stop offset="0%" stop-color="#f8fafc"/><stop offset="65%" stop-color="#f1f5f9"/><stop offset="100%" stop-color="#e0f2fe"/></linearGradient>
<linearGradient id="scan" x1="0" y1="0" x2="1" y2="0"><stop offset="0%" stop-color="transparent"/><stop offset="50%" stop-color="#0ea5e9" stop-opacity="0.13"/><stop offset="100%" stop-color="transparent"/></linearGradient>
<filter id="soft" x="-20%" y="-20%" width="140%" height="140%"><feGaussianBlur stdDeviation="2" result="b"/><feMerge><feMergeNode in="b"/><feMergeNode in="SourceGraphic"/></feMerge></filter>
</defs>
<rect x="0.5" y="0.5" width="1023" height="1313" rx="24" fill="url(#bg)" stroke="#cbd5e1"/>
<line x1="24" y1="40" x2="1000" y2="40" stroke="#93c5fd" stroke-opacity="0.07" stroke-width="1"/>
<line x1="24" y1="102" x2="1000" y2="102" stroke="#93c5fd" stroke-opacity="0.07" stroke-width="1"/>
<line x1="24" y1="164" x2="1000" y2="164" stroke="#93c5fd" stroke-opacity="0.07" stroke-width="1"/>
<line x1="24" y1="226" x2="1000" y2="226" stroke="#93c5fd" stroke-opacity="0.07" stroke-width="1"/>
<line x1="24" y1="288" x2="1000" y2="288" stroke="#93c5fd" stroke-opacity="0.07" stroke-width="1"/>
<line x1="24" y1="350" x2="1000" y2="350" stroke="#93c5fd" stroke-opacity="0.07" stroke-width="1"/>
<line x1="24" y1="412" x2="1000" y2="412" stroke="#93c5fd" stroke-opacity="0.07" stroke-width="1"/>
<line x1="24" y1="474" x2="1000" y2="474" stroke="#93c5fd" stroke-opacity="0.07" stroke-width="1"/>
<line x1="24" y1="536" x2="1000" y2="536" stroke="#93c5fd" stroke-opacity="0.07" stroke-width="1"/>
<line x1="24" y1="598" x2="1000" y2="598" stroke="#93c5fd" stroke-opacity="0.07" stroke-width="1"/>
<line x1="24" y1="660" x2="1000" y2="660" stroke="#93c5fd" stroke-opacity="0.07" stroke-width="1"/>
<line x1="24" y1="722" x2="1000" y2="722" stroke="#93c5fd" stroke-opacity="0.07" stroke-width="1"/>
<line x1="24" y1="784" x2="1000" y2="784" stroke="#93c5fd" stroke-opacity="0.07" stroke-width="1"/>
<line x1="24" y1="846" x2="1000" y2="846" stroke="#93c5fd" stroke-opacity="0.07" stroke-width="1"/>
<line x1="24" y1="908" x2="1000" y2="908" stroke="#93c5fd" stroke-opacity="0.07" stroke-width="1"/>
<line x1="24" y1="970" x2="1000" y2="970" stroke="#93c5fd" stroke-opacity="0.07" stroke-width="1"/>
<line x1="24" y1="1032" x2="1000" y2="1032" stroke="#93c5fd" stroke-opacity="0.07" stroke-width="1"/>
<line x1="24" y1="1094" x2="1000" y2="1094" stroke="#93c5fd" stroke-opacity="0.07" stroke-width="1"/>
<line x1="24" y1="1156" x2="1000" y2="1156" stroke="#93c5fd" stroke-opacity="0.07" stroke-width="1"/>
<line x1="24" y1="1218" x2="1000" y2="1218" stroke="#93c5fd" stroke-opacity="0.07" stroke-width="1"/>
<line x1="40" y1="24" x2="40" y2="1290" stroke="#93c5fd" stroke-opacity="0.05" stroke-width="1"/>
<line x1="122" y1="24" x2="122" y2="1290" stroke="#93c5fd" stroke-opacity="0.05" stroke-width="1"/>
<line x1="204" y1="24" x2="204" y2="1290" stroke="#93c5fd" stroke-opacity="0.05" stroke-width="1"/>
<line x1="286" y1="24" x2="286" y2="1290" stroke="#93c5fd" stroke-opacity="0.05" stroke-width="1"/>
<line x1="368" y1="24" x2="368" y2="1290" stroke="#93c5fd" stroke-opacity="0.05" stroke-width="1"/>
<line x1="450" y1="24" x2="450" y2="1290" stroke="#93c5fd" stroke-opacity="0.05" stroke-width="1"/>
<line x1="532" y1="24" x2="532" y2="1290" stroke="#93c5fd" stroke-opacity="0.05" stroke-width="1"/>
<line x1="614" y1="24" x2="614" y2="1290" stroke="#93c5fd" stroke-opacity="0.05" stroke-width="1"/>
<line x1="696" y1="24" x2="696" y2="1290" stroke="#93c5fd" stroke-opacity="0.05" stroke-width="1"/>
<line x1="778" y1="24" x2="778" y2="1290" stroke="#93c5fd" stroke-opacity="0.05" stroke-width="1"/>
<line x1="860" y1="24" x2="860" y2="1290" stroke="#93c5fd" stroke-opacity="0.05" stroke-width="1"/>
<line x1="942" y1="24" x2="942" y2="1290" stroke="#93c5fd" stroke-opacity="0.05" stroke-width="1"/>
<rect x="-1024" y="0" width="1024" height="1314" fill="url(#scan)"><animate attributeName="x" values="-1024;1024" dur="12s" repeatCount="indefinite"/></rect>
<text x="36" y="54" fill="#0f172a" font-size="22" font-family="JetBrains Mono, ui-monospace, Menlo, monospace" font-weight="700">Interface Overview</text>
<text x="36" y="80" fill="#475569" font-size="13" font-family="JetBrains Mono, ui-monospace, Menlo, monospace">Modern minimal dashboard generated from GitHub data</text>
<rect x="36" y="102" width="232" height="96" rx="14" fill="#ffffff" stroke="#cbd5e1"/>
<text x="54" y="138" fill="#475569" font-size="14" font-family="JetBrains Mono, ui-monospace, Menlo, monospace">Repos</text>
<text x="54" y="173" fill="#0f172a" font-size="30" font-family="JetBrains Mono, ui-monospace, Menlo, monospace" font-weight="700">13</text>
<circle cx="236" cy="130" r="4" fill="#0284c7" filter="url(#soft)"><animate attributeName="r" values="3;5;3" dur="3.8s" repeatCount="indefinite"/></circle>
<rect x="282" y="102" width="232" height="96" rx="14" fill="#ffffff" stroke="#cbd5e1"/>
<text x="300" y="138" fill="#475569" font-size="14" font-family="JetBrains Mono, ui-monospace, Menlo, monospace">Stars</text>
<text x="300" y="173" fill="#0f172a" font-size="30" font-family="JetBrains Mono, ui-monospace, Menlo, monospace" font-weight="700">2</text>
<circle cx="482" cy="130" r="4" fill="#0ea5e9" filter="url(#soft)"><animate attributeName="r" values="3;5;3" dur="3.8s" repeatCount="indefinite"/></circle>
<rect x="528" y="102" width="232" height="96" rx="14" fill="#ffffff" stroke="#cbd5e1"/>
<text x="546" y="138" fill="#475569" font-size="14" font-family="JetBrains Mono, ui-monospace, Menlo, monospace">Forks</text>
<text x="546" y="173" fill="#0f172a" font-size="30" font-family="JetBrains Mono, ui-monospace, Menlo, monospace" font-weight="700">0</text>
<circle cx="728" cy="130" r="4" fill="#0f766e" filter="url(#soft)"><animate attributeName="r" values="3;5;3" dur="3.8s" repeatCount="indefinite"/></circle>
<rect x="774" y="102" width="232" height="96" rx="14" fill="#ffffff" stroke="#cbd5e1"/>
<text x="792" y="138" fill="#475569" font-size="14" font-family="JetBrains Mono, ui-monospace, Menlo, monospace">Active 30d</text>
<text x="792" y="173" fill="#0f172a" font-size="30" font-family="JetBrains Mono, ui-monospace, Menlo, monospace" font-weight="700">2</text>
<circle cx="974" cy="130" r="4" fill="#16a34a" filter="url(#soft)"><animate attributeName="r" values="3;5;3" dur="3.8s" repeatCount="indefinite"/></circle>
<rect x="36" y="220" width="952" height="160" rx="14" fill="#ffffff" stroke="#cbd5e1"/>
<text x="56" y="254" fill="#0f172a" font-size="18" font-family="JetBrains Mono, ui-monospace, Menlo, monospace" font-weight="700">About</text>
<text x="56" y="282" fill="#475569" font-size="14" font-family="JetBrains Mono, ui-monospace, Menlo, monospace">Product-minded full-stack developer focused on clean UX and resilient architecture.</text>
<text x="56" y="306" fill="#475569" font-size="14" font-family="JetBrains Mono, ui-monospace, Menlo, monospace">Building practical AI products with engineering discipline and design taste.</text>
<rect x="56" y="326" width="198" height="26" rx="13" fill="#eef2ff" stroke="#cbd5e1"/>
<text x="72" y="344" fill="#0f172a" font-size="12.5" font-family="JetBrains Mono, ui-monospace, Menlo, monospace">Vue</text>
<rect x="280" y="326" width="198" height="26" rx="13" fill="#eef2ff" stroke="#cbd5e1"/>
<text x="296" y="344" fill="#0f172a" font-size="12.5" font-family="JetBrains Mono, ui-monospace, Menlo, monospace">TypeScript</text>
<rect x="504" y="326" width="198" height="26" rx="13" fill="#eef2ff" stroke="#cbd5e1"/>
<text x="520" y="344" fill="#0f172a" font-size="12.5" font-family="JetBrains Mono, ui-monospace, Menlo, monospace">FastAPI</text>
<rect x="728" y="326" width="198" height="26" rx="13" fill="#eef2ff" stroke="#cbd5e1"/>
<text x="744" y="344" fill="#0f172a" font-size="12.5" font-family="JetBrains Mono, ui-monospace, Menlo, monospace">Python</text>
<rect x="56" y="360" width="198" height="26" rx="13" fill="#eef2ff" stroke="#cbd5e1"/>
<text x="72" y="378" fill="#0f172a" font-size="12.5" font-family="JetBrains Mono, ui-monospace, Menlo, monospace">MySQL</text>
<rect x="280" y="360" width="198" height="26" rx="13" fill="#eef2ff" stroke="#cbd5e1"/>
<text x="296" y="378" fill="#0f172a" font-size="12.5" font-family="JetBrains Mono, ui-monospace, Menlo, monospace">Redis</text>
<rect x="504" y="360" width="198" height="26" rx="13" fill="#eef2ff" stroke="#cbd5e1"/>
<text x="520" y="378" fill="#0f172a" font-size="12.5" font-family="JetBrains Mono, ui-monospace, Menlo, monospace">Docker</text>
<rect x="728" y="360" width="198" height="26" rx="13" fill="#eef2ff" stroke="#cbd5e1"/>
<text x="744" y="378" fill="#0f172a" font-size="12.5" font-family="JetBrains Mono, ui-monospace, Menlo, monospace">Tailwind</text>
<rect x="36" y="404" width="470" height="430" rx="14" fill="#ffffff" stroke="#cbd5e1"/>
<text x="56" y="438" fill="#0f172a" font-size="18" font-family="JetBrains Mono, ui-monospace, Menlo, monospace" font-weight="700">Language Composition</text>
<circle cx="188" cy="622" r="108" fill="none" stroke="#cbd5e1" stroke-width="34"/>
<circle cx="188" cy="622" r="130" fill="none" stroke="#0284c7" stroke-opacity="0.26" stroke-width="1" stroke-dasharray="4 8"><animateTransform attributeName="transform" type="rotate" from="0 188 622" to="360 188 622" dur="22s" repeatCount="indefinite"/></circle>
<path d="M 188.00 514.00 A 108.00 108.00 0 1 1 158.37 518.14" fill="none" stroke="#0284c7" stroke-width="34" stroke-linecap="round" filter="url(#soft)"/>
<path d="M 158.37 518.14 A 108.00 108.00 0 0 1 179.24 514.36" fill="none" stroke="#0ea5e9" stroke-width="34" stroke-linecap="round" filter="url(#soft)"/>
<path d="M 179.24 514.36 A 108.00 108.00 0 0 1 185.79 514.02" fill="none" stroke="#0f766e" stroke-width="34" stroke-linecap="round" filter="url(#soft)"/>
<path d="M 185.79 514.02 A 108.00 108.00 0 0 1 188.00 514.00" fill="none" stroke="#2563eb" stroke-width="34" stroke-linecap="round" filter="url(#soft)"/>
<circle cx="188" cy="622" r="74" fill="#f8fafc" stroke="#cbd5e1"/>
<text x="188" y="616" text-anchor="middle" fill="#475569" font-size="12" font-family="JetBrains Mono, ui-monospace, Menlo, monospace">Private Repos</text>
<text x="188" y="640" text-anchor="middle" fill="#0f172a" font-size="24" font-family="JetBrains Mono, ui-monospace, Menlo, monospace" font-weight="700">0</text>
<circle cx="56" cy="762" r="5" fill="#0284c7"/>
<text x="68" y="766" fill="#475569" font-size="12.5" font-family="JetBrains Mono, ui-monospace, Menlo, monospace">Vue 95.6%</text>
<circle cx="266" cy="762" r="5" fill="#0ea5e9"/>
<text x="278" y="766" fill="#475569" font-size="12.5" font-family="JetBrains Mono, ui-monospace, Menlo, monospace">Java 3.1%</text>
<circle cx="56" cy="786" r="5" fill="#0f766e"/>
<text x="68" y="790" fill="#475569" font-size="12.5" font-family="JetBrains Mono, ui-monospace, Menlo, monospace">Python 1.0%</text>
<circle cx="266" cy="786" r="5" fill="#2563eb"/>
<text x="278" y="790" fill="#475569" font-size="12.5" font-family="JetBrains Mono, ui-monospace, Menlo, monospace">Other 0.3%</text>
<rect x="518" y="404" width="470" height="430" rx="14" fill="#ffffff" stroke="#cbd5e1"/>
<text x="538" y="438" fill="#0f172a" font-size="18" font-family="JetBrains Mono, ui-monospace, Menlo, monospace" font-weight="700">Repo Push Activity (12 months)</text>
<rect x="548" y="474" width="410" height="170" rx="10" fill="#f8fafc" stroke="#cbd5e1"/>
<path d="M 566.00 624.00  L 566.00 558.00 L 600.00 624.00 L 634.00 558.00 L 668.00 558.00 L 702.00 624.00 L 736.00 624.00 L 770.00 624.00 L 804.00 624.00 L 838.00 624.00 L 872.00 624.00 L 906.00 624.00 L 940.00 492.00 L 940.00 624.00 Z" fill="#0ea5e9" fill-opacity="0.16"/>
<path d="M 566.00 558.00 L 600.00 624.00 L 634.00 558.00 L 668.00 558.00 L 702.00 624.00 L 736.00 624.00 L 770.00 624.00 L 804.00 624.00 L 838.00 624.00 L 872.00 624.00 L 906.00 624.00 L 940.00 492.00" fill="none" stroke="#0284c7" stroke-width="3" filter="url(#soft)"/>
<circle cx="566.00" cy="558.00" r="3" fill="#0ea5e9"/>
<text x="566.00" y="662" text-anchor="middle" fill="#475569" font-size="11" font-family="JetBrains Mono, ui-monospace, Menlo, monospace">Apr</text>
<circle cx="600.00" cy="624.00" r="3" fill="#0ea5e9"/>
<text x="600.00" y="662" text-anchor="middle" fill="#475569" font-size="11" font-family="JetBrains Mono, ui-monospace, Menlo, monospace">May</text>
<circle cx="634.00" cy="558.00" r="3" fill="#0ea5e9"/>
<text x="634.00" y="662" text-anchor="middle" fill="#475569" font-size="11" font-family="JetBrains Mono, ui-monospace, Menlo, monospace">Jun</text>
<circle cx="668.00" cy="558.00" r="3" fill="#0ea5e9"/>
<text x="668.00" y="662" text-anchor="middle" fill="#475569" font-size="11" font-family="JetBrains Mono, ui-monospace, Menlo, monospace">Jul</text>
<circle cx="702.00" cy="624.00" r="3" fill="#0ea5e9"/>
<text x="702.00" y="662" text-anchor="middle" fill="#475569" font-size="11" font-family="JetBrains Mono, ui-monospace, Menlo, monospace">Aug</text>
<circle cx="736.00" cy="624.00" r="3" fill="#0ea5e9"/>
<text x="736.00" y="662" text-anchor="middle" fill="#475569" font-size="11" font-family="JetBrains Mono, ui-monospace, Menlo, monospace">Sep</text>
<circle cx="770.00" cy="624.00" r="3" fill="#0ea5e9"/>
<text x="770.00" y="662" text-anchor="middle" fill="#475569" font-size="11" font-family="JetBrains Mono, ui-monospace, Menlo, monospace">Oct</text>
<circle cx="804.00" cy="624.00" r="3" fill="#0ea5e9"/>
<text x="804.00" y="662" text-anchor="middle" fill="#475569" font-size="11" font-family="JetBrains Mono, ui-monospace, Menlo, monospace">Nov</text>
<circle cx="838.00" cy="624.00" r="3" fill="#0ea5e9"/>
<text x="838.00" y="662" text-anchor="middle" fill="#475569" font-size="11" font-family="JetBrains Mono, ui-monospace, Menlo, monospace">Dec</text>
<circle cx="872.00" cy="624.00" r="3" fill="#0ea5e9"/>
<text x="872.00" y="662" text-anchor="middle" fill="#475569" font-size="11" font-family="JetBrains Mono, ui-monospace, Menlo, monospace">Jan</text>
<circle cx="906.00" cy="624.00" r="3" fill="#0ea5e9"/>
<text x="906.00" y="662" text-anchor="middle" fill="#475569" font-size="11" font-family="JetBrains Mono, ui-monospace, Menlo, monospace">Feb</text>
<circle cx="940.00" cy="492.00" r="3" fill="#0ea5e9"/>
<text x="940.00" y="662" text-anchor="middle" fill="#475569" font-size="11" font-family="JetBrains Mono, ui-monospace, Menlo, monospace">Mar</text>
<circle cx="566.00" cy="558.00" r="5" fill="#0284c7" filter="url(#soft)"><animateMotion dur="8s" repeatCount="indefinite" path="M 566.00 558.00 L 600.00 624.00 L 634.00 558.00 L 668.00 558.00 L 702.00 624.00 L 736.00 624.00 L 770.00 624.00 L 804.00 624.00 L 838.00 624.00 L 872.00 624.00 L 906.00 624.00 L 940.00 492.00"/></circle>
<text x="548" y="690" fill="#475569" font-size="12" font-family="JetBrains Mono, ui-monospace, Menlo, monospace">Signal reflects last push date distribution across your repositories.</text>
<text x="548" y="726" fill="#475569" font-size="12.5" font-family="JetBrains Mono, ui-monospace, Menlo, monospace">Vue</text>
<rect x="660" y="714" width="250" height="14" rx="7" fill="#f8fafc" stroke="#cbd5e1"/>
<rect x="660" y="714" width="219" height="14" rx="7" fill="#0284c7" filter="url(#soft)"/>
<text x="920" y="726" text-anchor="end" fill="#0ea5e9" font-size="12" font-family="JetBrains Mono, ui-monospace, Menlo, monospace">95.58%</text>
<text x="548" y="754" fill="#475569" font-size="12.5" font-family="JetBrains Mono, ui-monospace, Menlo, monospace">Java</text>
<rect x="660" y="742" width="250" height="14" rx="7" fill="#f8fafc" stroke="#cbd5e1"/>
<rect x="660" y="742" width="8" height="14" rx="7" fill="#0ea5e9" filter="url(#soft)"/>
<text x="920" y="754" text-anchor="end" fill="#0ea5e9" font-size="12" font-family="JetBrains Mono, ui-monospace, Menlo, monospace">3.13%</text>
<text x="548" y="782" fill="#475569" font-size="12.5" font-family="JetBrains Mono, ui-monospace, Menlo, monospace">Python</text>
<rect x="660" y="770" width="250" height="14" rx="7" fill="#f8fafc" stroke="#cbd5e1"/>
<rect x="660" y="770" width="8" height="14" rx="7" fill="#0f766e" filter="url(#soft)"/>
<text x="920" y="782" text-anchor="end" fill="#0ea5e9" font-size="12" font-family="JetBrains Mono, ui-monospace, Menlo, monospace">0.97%</text>
<text x="548" y="810" fill="#475569" font-size="12.5" font-family="JetBrains Mono, ui-monospace, Menlo, monospace">Other</text>
<rect x="660" y="798" width="250" height="14" rx="7" fill="#f8fafc" stroke="#cbd5e1"/>
<rect x="660" y="798" width="8" height="14" rx="7" fill="#2563eb" filter="url(#soft)"/>
<text x="920" y="810" text-anchor="end" fill="#0ea5e9" font-size="12" font-family="JetBrains Mono, ui-monospace, Menlo, monospace">0.33%</text>
<rect x="36" y="852" width="952" height="334" rx="14" fill="#ffffff" stroke="#cbd5e1"/>
<text x="56" y="886" fill="#0f172a" font-size="18" font-family="JetBrains Mono, ui-monospace, Menlo, monospace" font-weight="700">Featured Repositories</text>
<line x1="56" y1="933" x2="968" y2="933" stroke="#cbd5e1" stroke-opacity="0.5"/>
<text x="56" y="924" fill="#0f172a" font-size="14.5" font-family="JetBrains Mono, ui-monospace, Menlo, monospace" font-weight="700">Hughhhhcoder</text>
<text x="56" y="943" fill="#475569" font-size="12.5" font-family="JetBrains Mono, ui-monospace, Menlo, monospace">No description</text>
<text x="820" y="924" fill="#0ea5e9" font-size="12.5" font-family="JetBrains Mono, ui-monospace, Menlo, monospace">Python</text>
<text x="896" y="924" fill="#475569" font-size="12.5" font-family="JetBrains Mono, ui-monospace, Menlo, monospace">★ 1</text>
<text x="948" y="924" fill="#475569" font-size="12.5" font-family="JetBrains Mono, ui-monospace, Menlo, monospace" text-anchor="end">⑂ 0</text>
<line x1="56" y1="977" x2="968" y2="977" stroke="#cbd5e1" stroke-opacity="0.5"/>
<text x="56" y="968" fill="#0f172a" font-size="14.5" font-family="JetBrains Mono, ui-monospace, Menlo, monospace" font-weight="700">deeplearning</text>
<text x="56" y="987" fill="#475569" font-size="12.5" font-family="JetBrains Mono, ui-monospace, Menlo, monospace">No description</text>
<text x="820" y="968" fill="#0ea5e9" font-size="12.5" font-family="JetBrains Mono, ui-monospace, Menlo, monospace">Other</text>
<text x="896" y="968" fill="#475569" font-size="12.5" font-family="JetBrains Mono, ui-monospace, Menlo, monospace">★ 1</text>
<text x="948" y="968" fill="#475569" font-size="12.5" font-family="JetBrains Mono, ui-monospace, Menlo, monospace" text-anchor="end">⑂ 0</text>
<line x1="56" y1="1021" x2="968" y2="1021" stroke="#cbd5e1" stroke-opacity="0.5"/>
<text x="56" y="1012" fill="#0f172a" font-size="14.5" font-family="JetBrains Mono, ui-monospace, Menlo, monospace" font-weight="700">superagent</text>
<text x="56" y="1031" fill="#475569" font-size="12.5" font-family="JetBrains Mono, ui-monospace, Menlo, monospace">No description</text>
<text x="820" y="1012" fill="#0ea5e9" font-size="12.5" font-family="JetBrains Mono, ui-monospace, Menlo, monospace">Python</text>
<text x="896" y="1012" fill="#475569" font-size="12.5" font-family="JetBrains Mono, ui-monospace, Menlo, monospace">★ 0</text>
<text x="948" y="1012" fill="#475569" font-size="12.5" font-family="JetBrains Mono, ui-monospace, Menlo, monospace" text-anchor="end">⑂ 0</text>
<line x1="56" y1="1065" x2="968" y2="1065" stroke="#cbd5e1" stroke-opacity="0.5"/>
<text x="56" y="1056" fill="#0f172a" font-size="14.5" font-family="JetBrains Mono, ui-monospace, Menlo, monospace" font-weight="700">GOOGLEADS-AUTO</text>
<text x="56" y="1075" fill="#475569" font-size="12.5" font-family="JetBrains Mono, ui-monospace, Menlo, monospace">No description</text>
<text x="820" y="1056" fill="#0ea5e9" font-size="12.5" font-family="JetBrains Mono, ui-monospace, Menlo, monospace">Other</text>
<text x="896" y="1056" fill="#475569" font-size="12.5" font-family="JetBrains Mono, ui-monospace, Menlo, monospace">★ 0</text>
<text x="948" y="1056" fill="#475569" font-size="12.5" font-family="JetBrains Mono, ui-monospace, Menlo, monospace" text-anchor="end">⑂ 0</text>
<line x1="56" y1="1109" x2="968" y2="1109" stroke="#cbd5e1" stroke-opacity="0.5"/>
<text x="56" y="1100" fill="#0f172a" font-size="14.5" font-family="JetBrains Mono, ui-monospace, Menlo, monospace" font-weight="700">face-glasses</text>
<text x="56" y="1119" fill="#475569" font-size="12.5" font-family="JetBrains Mono, ui-monospace, Menlo, monospace">No description</text>
<text x="820" y="1100" fill="#0ea5e9" font-size="12.5" font-family="JetBrains Mono, ui-monospace, Menlo, monospace">Vue</text>
<text x="896" y="1100" fill="#475569" font-size="12.5" font-family="JetBrains Mono, ui-monospace, Menlo, monospace">★ 0</text>
<text x="948" y="1100" fill="#475569" font-size="12.5" font-family="JetBrains Mono, ui-monospace, Menlo, monospace" text-anchor="end">⑂ 0</text>
<line x1="56" y1="1153" x2="968" y2="1153" stroke="#cbd5e1" stroke-opacity="0.5"/>
<text x="56" y="1144" fill="#0f172a" font-size="14.5" font-family="JetBrains Mono, ui-monospace, Menlo, monospace" font-weight="700">HTooL</text>
<text x="56" y="1163" fill="#475569" font-size="12.5" font-family="JetBrains Mono, ui-monospace, Menlo, monospace">No description</text>
<text x="820" y="1144" fill="#0ea5e9" font-size="12.5" font-family="JetBrains Mono, ui-monospace, Menlo, monospace">Vue</text>
<text x="896" y="1144" fill="#475569" font-size="12.5" font-family="JetBrains Mono, ui-monospace, Menlo, monospace">★ 0</text>
<text x="948" y="1144" fill="#475569" font-size="12.5" font-family="JetBrains Mono, ui-monospace, Menlo, monospace" text-anchor="end">⑂ 0</text>
<rect x="36" y="1212" width="952" height="76" rx="14" fill="#f8fafc" stroke="#cbd5e1"/>
<text x="56" y="1243" fill="#0f172a" font-size="15" font-family="JetBrains Mono, ui-monospace, Menlo, monospace" font-weight="700">Design Principle</text>
<text x="56" y="1267" fill="#475569" font-size="13" font-family="JetBrains Mono, ui-monospace, Menlo, monospace">Slow is smooth, smooth is fast. Build with intention, ship with quality.</text>
<text x="958" y="1267" text-anchor="end" fill="#475569" font-size="12" font-family="JetBrains Mono, ui-monospace, Menlo, monospace">generated 2026-03-30 14:22 UTC</text>
</svg>
