<svg width="980" height="560" viewBox="0 0 980 560" fill="none" xmlns="http://www.w3.org/2000/svg" role="img" aria-label="Language spectrum">
<defs>
<linearGradient id="bg" x1="0" y1="0" x2="1" y2="1"><stop offset="0%" stop-color="#020617"/><stop offset="55%" stop-color="#0b1220"/><stop offset="100%" stop-color="#062029"/></linearGradient>
<linearGradient id="header" x1="0" y1="0" x2="1" y2="0"><stop offset="0%" stop-color="#22d3ee"/><stop offset="100%" stop-color="#0ea5e9"/></linearGradient>
<linearGradient id="panel" x1="0" y1="0" x2="1" y2="1"><stop offset="0%" stop-color="#0f172a"/><stop offset="100%" stop-color="#111827"/></linearGradient>
<linearGradient id="scan" x1="0" y1="0" x2="1" y2="0"><stop offset="0%" stop-color="transparent"/><stop offset="50%" stop-color="#22d3ee" stop-opacity="0.16"/><stop offset="100%" stop-color="transparent"/></linearGradient>
<filter id="glow" x="-20%" y="-20%" width="140%" height="140%"><feGaussianBlur stdDeviation="2.5" result="blur"/><feMerge><feMergeNode in="blur"/><feMergeNode in="SourceGraphic"/></feMerge></filter>
</defs>
<rect x="0.5" y="0.5" width="979" height="559" rx="24" fill="url(#bg)" stroke="#1f2937"/>
<rect x="24" y="24" width="932" height="92" rx="14" fill="#0f172a" stroke="#1f2937"/>
<rect x="24" y="24" width="932" height="92" rx="14" fill="url(#header)" opacity="0.10"/>
<rect x="-980" y="0" width="980" height="560" fill="url(#scan)"><animate attributeName="x" values="-980;980" dur="11s" repeatCount="indefinite"/></rect>
<text x="42" y="61" font-size="24" fill="#e2e8f0" font-family="JetBrains Mono, ui-monospace, SFMono-Regular, Menlo, monospace" font-weight="700">Language Spectrum • Dual View</text>
<text x="42" y="88" font-size="14" fill="#7dd3fc" font-family="JetBrains Mono, ui-monospace, SFMono-Regular, Menlo, monospace">@Hughhhhcoder | repositories scanned: 13 | total bytes: 378,545</text>
<text x="42" y="108" font-size="12" fill="#94a3b8" font-family="JetBrains Mono, ui-monospace, SFMono-Regular, Menlo, monospace">updated: 2026-03-30 13:56 UTC</text>
<rect x="24" y="138" width="410" height="398" rx="16" fill="url(#panel)" stroke="#1f2937"/>
<rect x="446" y="138" width="510" height="398" rx="16" fill="url(#panel)" stroke="#1f2937"/>
<text x="44" y="166" font-size="14" fill="#7dd3fc" font-family="JetBrains Mono, ui-monospace, SFMono-Regular, Menlo, monospace" font-weight="700">Donut Radar</text>
<text x="468" y="166" font-size="14" fill="#7dd3fc" font-family="JetBrains Mono, ui-monospace, SFMono-Regular, Menlo, monospace" font-weight="700">Percentage Bars</text>
<circle cx="225" cy="343" r="116" fill="none" stroke="#1f2937" stroke-width="36"/>
<circle cx="225" cy="343" r="136" fill="none" stroke="#0f2c3a" stroke-width="1.2" opacity="0.9"/>
<circle cx="225" cy="343" r="147" fill="none" stroke="#0e7490" stroke-width="1" opacity="0.35" stroke-dasharray="4 8"><animateTransform attributeName="transform" type="rotate" from="0 225 343" to="360 225 343" dur="24s" repeatCount="indefinite"/></circle>
<path d="M 226.42 227.01 A 116.00 116.00 0 0 1 233.12 458.72" fill="none" stroke="#22d3ee" stroke-width="36" stroke-linecap="round" filter="url(#glow)"/>
<path d="M 230.29 458.88 A 116.00 116.00 0 0 1 123.97 286.00" fill="none" stroke="#38bdf8" stroke-width="36" stroke-linecap="round" filter="url(#glow)"/>
<path d="M 125.39 283.55 A 116.00 116.00 0 0 1 197.89 230.21" fill="none" stroke="#14b8a6" stroke-width="36" stroke-linecap="round" filter="url(#glow)"/>
<path d="M 200.65 229.58 A 116.00 116.00 0 0 1 217.83 227.22" fill="none" stroke="#0ea5e9" stroke-width="36" stroke-linecap="round" filter="url(#glow)"/>
<path d="M 220.66 227.08 A 116.00 116.00 0 0 1 221.18 227.06" fill="none" stroke="#2dd4bf" stroke-width="36" stroke-linecap="round" filter="url(#glow)"/>
<path d="M 224.01 227.00 A 116.00 116.00 0 0 1 224.21 227.00" fill="none" stroke="#06b6d4" stroke-width="36" stroke-linecap="round" filter="url(#glow)"/>
<circle cx="225" cy="343" r="91.0" fill="#050b16" stroke="#1f2937"/>
<text x="225" y="337" text-anchor="middle" font-size="13" fill="#94a3b8" font-family="JetBrains Mono, ui-monospace, SFMono-Regular, Menlo, monospace">TOTAL CODE</text>
<text x="225" y="359" text-anchor="middle" font-size="18" fill="#e2e8f0" font-weight="700" font-family="JetBrains Mono, ui-monospace, SFMono-Regular, Menlo, monospace">378.55 KB</text>
<circle cx="54" cy="485" r="5" fill="#22d3ee"/>
<text x="66" y="489" font-size="12.5" fill="#cbd5e1" font-family="JetBrains Mono, ui-monospace, SFMono-Regular, Menlo, monospace">Python 49.1%</text>
<circle cx="224" cy="485" r="5" fill="#38bdf8"/>
<text x="236" y="489" font-size="12.5" fill="#cbd5e1" font-family="JetBrains Mono, ui-monospace, SFMono-Regular, Menlo, monospace">Vue 34.3%</text>
<circle cx="54" cy="507" r="5" fill="#14b8a6"/>
<text x="66" y="511" font-size="12.5" fill="#cbd5e1" font-family="JetBrains Mono, ui-monospace, SFMono-Regular, Menlo, monospace">Java 13.1%</text>
<circle cx="224" cy="507" r="5" fill="#0ea5e9"/>
<text x="236" y="511" font-size="12.5" fill="#cbd5e1" font-family="JetBrains Mono, ui-monospace, SFMono-Regular, Menlo, monospace">JavaScript 2.8%</text>
<text x="470" y="208" font-size="14" fill="#cbd5e1" font-family="JetBrains Mono, ui-monospace, SFMono-Regular, Menlo, monospace">Python</text>
<text x="930" y="208" text-anchor="end" font-size="13" fill="#7dd3fc" font-family="JetBrains Mono, ui-monospace, SFMono-Regular, Menlo, monospace">49.08%</text>
<rect x="612" y="194" width="300" height="16" rx="8" fill="#0b1220" stroke="#1f2937"/>
<rect x="612" y="194" width="147" height="16" rx="8" fill="#22d3ee" filter="url(#glow)" opacity="0.95"/>
<rect x="612" y="196" width="36" height="12" rx="6" fill="#e0f2fe" opacity="0.30"><animate attributeName="x" values="612;723;612" dur="6.0s" repeatCount="indefinite"/></rect>
<text x="470" y="252" font-size="14" fill="#cbd5e1" font-family="JetBrains Mono, ui-monospace, SFMono-Regular, Menlo, monospace">Vue</text>
<text x="930" y="252" text-anchor="end" font-size="13" fill="#7dd3fc" font-family="JetBrains Mono, ui-monospace, SFMono-Regular, Menlo, monospace">34.29%</text>
<rect x="612" y="238" width="300" height="16" rx="8" fill="#0b1220" stroke="#1f2937"/>
<rect x="612" y="238" width="102" height="16" rx="8" fill="#38bdf8" filter="url(#glow)" opacity="0.95"/>
<rect x="612" y="240" width="25" height="12" rx="6" fill="#e0f2fe" opacity="0.30"><animate attributeName="x" values="612;689;612" dur="6.4s" repeatCount="indefinite"/></rect>
<text x="470" y="296" font-size="14" fill="#cbd5e1" font-family="JetBrains Mono, ui-monospace, SFMono-Regular, Menlo, monospace">Java</text>
<text x="930" y="296" text-anchor="end" font-size="13" fill="#7dd3fc" font-family="JetBrains Mono, ui-monospace, SFMono-Regular, Menlo, monospace">13.07%</text>
<rect x="612" y="282" width="300" height="16" rx="8" fill="#0b1220" stroke="#1f2937"/>
<rect x="612" y="282" width="39" height="16" rx="8" fill="#14b8a6" filter="url(#glow)" opacity="0.95"/>
<rect x="612" y="284" width="16" height="12" rx="6" fill="#e0f2fe" opacity="0.30"><animate attributeName="x" values="612;635;612" dur="6.8s" repeatCount="indefinite"/></rect>
<text x="470" y="340" font-size="14" fill="#cbd5e1" font-family="JetBrains Mono, ui-monospace, SFMono-Regular, Menlo, monospace">JavaScript</text>
<text x="930" y="340" text-anchor="end" font-size="13" fill="#7dd3fc" font-family="JetBrains Mono, ui-monospace, SFMono-Regular, Menlo, monospace"> 2.77%</text>
<rect x="612" y="326" width="300" height="16" rx="8" fill="#0b1220" stroke="#1f2937"/>
<rect x="612" y="326" width="8" height="16" rx="8" fill="#0ea5e9" filter="url(#glow)" opacity="0.95"/>
<rect x="612" y="328" width="16" height="12" rx="6" fill="#e0f2fe" opacity="0.30"><animate attributeName="x" values="612;614;612" dur="7.2s" repeatCount="indefinite"/></rect>
<text x="470" y="384" font-size="14" fill="#cbd5e1" font-family="JetBrains Mono, ui-monospace, SFMono-Regular, Menlo, monospace">HTML</text>
<text x="930" y="384" text-anchor="end" font-size="13" fill="#7dd3fc" font-family="JetBrains Mono, ui-monospace, SFMono-Regular, Menlo, monospace"> 0.46%</text>
<rect x="612" y="370" width="300" height="16" rx="8" fill="#0b1220" stroke="#1f2937"/>
<rect x="612" y="370" width="8" height="16" rx="8" fill="#2dd4bf" filter="url(#glow)" opacity="0.95"/>
<rect x="612" y="372" width="16" height="12" rx="6" fill="#e0f2fe" opacity="0.30"><animate attributeName="x" values="612;614;612" dur="7.6s" repeatCount="indefinite"/></rect>
<text x="470" y="428" font-size="14" fill="#cbd5e1" font-family="JetBrains Mono, ui-monospace, SFMono-Regular, Menlo, monospace">CSS</text>
<text x="930" y="428" text-anchor="end" font-size="13" fill="#7dd3fc" font-family="JetBrains Mono, ui-monospace, SFMono-Regular, Menlo, monospace"> 0.34%</text>
<rect x="612" y="414" width="300" height="16" rx="8" fill="#0b1220" stroke="#1f2937"/>
<rect x="612" y="414" width="8" height="16" rx="8" fill="#06b6d4" filter="url(#glow)" opacity="0.95"/>
<rect x="612" y="416" width="16" height="12" rx="6" fill="#e0f2fe" opacity="0.30"><animate attributeName="x" values="612;614;612" dur="8.0s" repeatCount="indefinite"/></rect>
</svg>
